<svg xmlns="http://www.w3.org/2000/svg" xmlns:xlink="http://www.w3.org/1999/xlink" width="460" height="141.203" viewBox="0 0 460 141.203">
  <defs>
    <filter id="Rectangle_6" x="0" y="0" width="460" height="141.203" filterUnits="userSpaceOnUse">
      <feOffset input="SourceAlpha"/>
      <feGaussianBlur stdDeviation="10" result="blur"/>
      <feFlood flood-color="#fff"/>
      <feComposite operator="in" in2="blur"/>
      <feComposite in="SourceGraphic"/>
    </filter>
    <filter id="Path_59" x="7.5" y="7.5" width="445" height="126.203" filterUnits="userSpaceOnUse">
      <feOffset input="SourceAlpha"/>
      <feGaussianBlur stdDeviation="7.5" result="blur-2"/>
      <feFlood flood-color="#fff"/>
      <feComposite operator="in" in2="blur-2"/>
      <feComposite in="SourceGraphic"/>
    </filter>
  </defs>
  <g id="Group_29" data-name="Group 29" transform="translate(-398 -628)">
    <g id="Group_1" data-name="Group 1" transform="translate(428 658)">
      <g transform="matrix(1, 0, 0, 1, -30, -30)" filter="url(#Rectangle_6)">
        <rect id="Rectangle_6-2" data-name="Rectangle 6" width="400" height="81.203" rx="40.602" transform="translate(30 30)" fill="rgba(255,255,255,0.5)"/>
      </g>
    </g>
    <g id="Group_2" data-name="Group 2" transform="translate(428 658)">
      <g transform="matrix(1, 0, 0, 1, -30, -30)" filter="url(#Path_59)">
        <g id="Path_59-2" data-name="Path 59" transform="translate(30 30)" fill="rgba(255,255,255,0)">
          <path d="M 359.3984985351562 80.2030029296875 L 40.60150146484375 80.2030029296875 C 35.25490188598633 80.2030029296875 30.06875038146973 79.15610504150391 25.18709945678711 77.09135437011719 C 20.47150039672852 75.0968017578125 16.23624992370605 72.24125671386719 12.59899997711182 68.60400390625 C 8.961750030517578 64.96675872802734 6.106200218200684 60.73150634765625 4.111649990081787 56.01590347290039 C 2.046900033950806 51.13425445556641 1 45.94810485839844 1 40.60150527954102 C 1 35.25490570068359 2.046900033950806 30.06875610351562 4.111649990081787 25.18710517883301 C 6.106200218200684 20.47150611877441 8.961750030517578 16.23625564575195 12.59899997711182 12.59900569915771 C 16.23624992370605 8.961755752563477 20.47150039672852 6.106205463409424 25.18709945678711 4.111655235290527 C 30.06875038146973 2.046905279159546 35.25490188598633 1.00000524520874 40.60150146484375 1.00000524520874 L 359.3984985351562 1.00000524520874 C 364.7450866699219 1.00000524520874 369.9312438964844 2.046905279159546 374.8128967285156 4.111655235290527 C 379.5285034179688 6.106205463409424 383.7637634277344 8.961755752563477 387.4010009765625 12.59900569915771 C 391.0382385253906 16.23625564575195 393.893798828125 20.47150611877441 395.8883361816406 25.18710517883301 C 397.9530944824219 30.06875610351562 399 35.25490570068359 399 40.60150527954102 C 399 45.94810485839844 397.9530944824219 51.13425445556641 395.8883361816406 56.01590347290039 C 393.893798828125 60.73150634765625 391.0382385253906 64.96675872802734 387.4010009765625 68.60400390625 C 383.7637634277344 72.24125671386719 379.5285034179688 75.0968017578125 374.8128967285156 77.09135437011719 C 369.9312438964844 79.15610504150391 364.7450866699219 80.2030029296875 359.3984985351562 80.2030029296875 Z" stroke="none"/>
          <path d="M 40.60147094726562 1.999977111816406 C 35.38943481445312 1.999977111816406 30.33438110351562 3.020294189453125 25.57662963867188 5.032661437988281 C 20.98025512695312 6.976768493652344 16.85183715820312 9.760345458984375 13.30609130859375 13.30613708496094 C 9.7603759765625 16.85187530517578 6.976776123046875 20.98029327392578 5.032684326171875 25.57666397094727 C 3.02032470703125 30.33434677124023 2 35.38945388793945 2 40.60150527954102 C 2 45.81355667114258 3.02032470703125 50.8686637878418 5.032684326171875 55.62634658813477 C 6.976776123046875 60.22271728515625 9.7603759765625 64.35113525390625 13.30609130859375 67.89687347412109 C 16.85183715820312 71.44266510009766 20.98025512695312 74.22624206542969 25.57662963867188 76.17034912109375 C 30.33438110351562 78.18271636962891 35.38943481445312 79.20303344726562 40.60147094726562 79.20303344726562 L 359.3984680175781 79.20303344726562 C 364.6105346679688 79.20303344726562 369.6655883789062 78.18271636962891 374.4233093261719 76.17034912109375 C 379.0196838378906 74.22624206542969 383.1481018066406 71.44266510009766 386.69384765625 67.89687347412109 C 390.2396240234375 64.35113525390625 393.0232238769531 60.22271728515625 394.9673156738281 55.62634658813477 C 396.9796752929688 50.86861038208008 398 45.81355667114258 398 40.60150527954102 C 398 35.38945388793945 396.9796752929688 30.33440017700195 394.9673156738281 25.57666397094727 C 393.0232238769531 20.98029327392578 390.2396240234375 16.85187530517578 386.69384765625 13.30613708496094 C 383.1481018066406 9.760345458984375 379.0196838378906 6.976768493652344 374.4233093261719 5.032661437988281 C 369.6655883789062 3.020294189453125 364.6105346679688 1.999977111816406 359.3984680175781 1.999977111816406 L 40.60147094726562 1.999977111816406 M 40.60147094726562 -2.288818359375e-05 L 359.3984680175781 -2.288818359375e-05 C 381.8220520019531 -2.288818359375e-05 400 18.17792510986328 400 40.60150527954102 C 400 63.02508544921875 381.8220520019531 81.20303344726562 359.3984680175781 81.20303344726562 L 40.60147094726562 81.20303344726562 C 18.17788696289062 81.20303344726562 0 63.02508544921875 0 40.60150527954102 C 0 18.17792510986328 18.17788696289062 -2.288818359375e-05 40.60147094726562 -2.288818359375e-05 Z" stroke="none" fill="#fff"/>
        </g>
      </g>
      <path id="Path_19" data-name="Path 19" d="M27.487,18.023C54.648,18.007,55,17.114,55,32.3a27.5,27.5,0,1,1-55,0C0,17.114.326,18.038,27.487,18.023Z" transform="translate(98.351 -16.008)"/>
      <path id="Path_61" data-name="Path 61" d="M27.487,18.023C54.648,18.007,55,17.114,55,32.3a27.5,27.5,0,1,1-55,0C0,17.114.326,18.038,27.487,18.023Z" transform="translate(308.351 -16.008)"/>
      <path id="Path_62" data-name="Path 62" d="M27.487,18.023C54.648,18.007,55,17.114,55,32.3a27.5,27.5,0,1,1-55,0C0,17.114.326,18.038,27.487,18.023Z" transform="translate(246.351 -16.008)"/>
      <path id="Path_63" data-name="Path 63" d="M27.487,18.023C54.648,18.007,55,17.114,55,32.3a27.5,27.5,0,1,1-55,0C0,17.114.326,18.038,27.487,18.023Z" transform="translate(184.351 -16.008)"/>
      <path id="Path_60" data-name="Path 60" d="M27.487,18.023C54.648,18.007,55,17.114,55,32.3a27.5,27.5,0,1,1-55,0C0,17.114.326,18.038,27.487,18.023Z" transform="translate(36.351 -16.008)"/>
    </g>
  </g>
</svg>
